<?xml version="1.0" encoding="utf-8"?>
<!-- Generator: Adobe Illustrator 26.0.1, SVG Export Plug-In . SVG Version: 6.00 Build 0)  -->
<svg version="1.1" id="Layer_1" xmlns="http://www.w3.org/2000/svg" xmlns:xlink="http://www.w3.org/1999/xlink" x="0px" y="0px"
	 viewBox="0 0 295.2 88.9" style="enable-background:new 0 0 295.2 88.9;" xml:space="preserve">
<style type="text/css">
	.st0{fill:none;stroke:#44916C;stroke-width:1.9998;stroke-miterlimit:288.0077;}
	.st1{fill:none;stroke:#DA251D;stroke-width:1.9998;stroke-miterlimit:288.0077;}
	.st2{fill:none;stroke:#28166F;stroke-width:1.9998;stroke-miterlimit:288.0077;}
	.st3{fill:none;stroke:#E77817;stroke-width:1.9998;stroke-miterlimit:288.0077;}
	.st4{fill-rule:evenodd;clip-rule:evenodd;fill:#191970;}
	.st5{fill:#FFFFFF;}
</style>
<g id="_92679072">
	<line id="_92200664" class="st0" x1="45.7" y1="42.7" x2="6.8" y2="43"/>
	<line id="_92673384" class="st1" x1="36.4" y1="56.4" x2="-2.4" y2="56.7"/>
	<line id="_92673912" class="st2" x1="36.4" y1="72.6" x2="-2.4" y2="72.9"/>
	<line id="_91193856" class="st3" x1="54.4" y1="85.2" x2="9.4" y2="85.5"/>
	<path id="_92678544" class="st4" d="M59.73,87.96C43.55,86.28,26.67,73.13,32.1,56.34c1.29-3.98,3.74-7.46,6.86-10.25
		c3.71-3.32,9.96-7.66,18.25-9.01c8.8-1.42,17.3-2.02,22.43-2.26c2.63-0.13,4.82-2.09,5.21-4.69C89.83-2.75,159.05-5.84,178.66,8.1
		c2.22,1.58,4.12,2.96,5.73,4.14c4.83,3.55,10.77,5.22,16.74,4.69c10.95-0.98,28.86-1.44,37.3,4.74c4.84,3.58,8.39,7.62,10.92,11.25
		c3.89,5.55,9.93,9.21,16.65,10.15c14.22,2,32.89,11.71,29.03,27.11c-2.19,8.63-15.97,13.99-22.95,16.19
		c-2.4,0.76-4.9,1.15-7.42,1.15L59.73,87.96L59.73,87.96z"/>
	<polygon id="_92200736" class="st5" points="54.4,50.7 58.9,50.7 61.2,65.4 67,50.7 69.7,50.7 72,65.5 77.8,50.7 82.6,50.7 
		73.1,75 69.4,75 67.3,61.1 61.8,75 58.1,75 	"/>
	<polygon id="_922007361" class="st5" points="85.1,50.7 90.2,50.7 88.9,59.8 98,59.8 99.3,50.7 104.3,50.7 100.8,75 95.8,75 
		97.3,64.7 88.1,64.7 86.6,75 81.6,75 	"/>
	<polygon id="_9220073612" class="st5" points="107.9,50.7 121,50.7 120.3,55 112.2,55 111.4,60.4 119.1,60.4 118.4,64.7 
		110.7,64.7 109.9,70.6 117.7,70.6 117.1,75 104.2,75 	"/>
	<polygon id="_92200736123" class="st5" points="124,50.7 137.1,50.7 136.5,55 128.3,55 127.5,60.4 135.2,60.4 134.6,64.7 
		126.9,64.7 126,70.6 133.8,70.6 133.2,75 120.3,75 	"/>
	<polygon id="_922007361234" class="st5" points="140.1,50.7 145.1,50.7 142.2,70.6 150.2,70.6 149.6,75 136.5,75 	"/>
	<path id="_9220073612345" class="st5" d="M168.7,53.3l-2.7,3.5c-0.9-0.6-1.7-1.1-2.3-1.5c-0.6-0.3-1.2-0.5-1.8-0.5
		c-0.9,0-1.7,0.3-2.3,0.8s-0.9,1.2-0.9,2c0,0.7,0.3,1.4,1,1.9c0.6,0.5,1.7,1.1,3.3,1.8c1.2,0.8,2.1,1.4,2.5,1.8
		c0.5,0.4,0.9,1,1.3,1.8c0.4,0.8,0.6,1.7,0.6,2.7c0,2.1-0.8,3.9-2.4,5.3c-1.6,1.5-3.5,2.2-5.7,2.2c-2.7,0-5.2-1-7.7-3.1l2.8-3.5
		c0.6,0.4,1.4,0.9,2.2,1.5c0.8,0.5,1.6,0.8,2.5,0.8s1.6-0.3,2.3-0.9c0.6-0.6,0.9-1.3,0.9-2.1c0-0.7-0.3-1.4-0.9-2
		c-0.6-0.6-1.6-1.1-2.8-1.6s-2.1-1-2.6-1.4s-1-1-1.6-1.9c-0.5-0.9-0.8-1.9-0.8-3.2c0-2.2,0.8-3.9,2.4-5.4c1.6-1.4,3.6-2.1,5.9-2.1
		C164.3,50.4,166.5,51.4,168.7,53.3L168.7,53.3z"/>
	<path id="_92200736123456" class="st5" d="M172.2,50.7h6.2c1.6,0,3.3,0.4,5.1,1.1c1.8,0.7,3.3,1.9,4.4,3.7c1.1,1.8,1.7,3.8,1.7,6.2
		c0,2.1-0.4,4.1-1.2,5.9c-0.8,1.8-1.9,3.3-3.3,4.4c-1.4,1.2-2.7,2-4.1,2.4c-1.3,0.4-2.9,0.6-4.7,0.6h-7.7L172.2,50.7z M176.5,55.7
		l-2,14.3h1.8c3,0,5-0.8,6.3-2.4s1.9-3.6,1.9-6c0-1.8-0.6-3.2-1.7-4.3c-1.1-1.1-2.7-1.6-4.6-1.6H176.5L176.5,55.7z"/>
	<path id="_922007361234567" class="st5" d="M194.8,50.7h4.6c3.1,0,5.4,0.6,7,1.9c1.6,1.2,2.4,3.1,2.4,5.4c0,1.9-0.4,3.5-1.3,4.9
		c-0.9,1.4-2.3,2.4-4.4,2.8l4.7,9.2h-5.1l-4.5-8.8h-0.7l-1.3,8.8h-5L194.8,50.7L194.8,50.7z M199.1,55l-1,6.8h1
		c1.3,0,2.3-0.4,3.2-1.1c0.9-0.7,1.3-1.6,1.3-2.6c0-1.1-0.4-2-1.1-2.5C201.8,55.3,200.7,55,199.1,55z"/>
	<polygon id="_9220073612345678" class="st5" points="213.6,50.7 218.6,50.7 215,75 210,75 	"/>
	<polygon id="_92200736123456789" class="st5" points="220.8,50.7 225.4,50.7 229.2,67.8 237.9,50.7 243,50.7 230.5,75 226.2,75 	
		"/>
	<polygon id="_9220073612345678910" class="st5" points="246.3,50.7 259.4,50.7 258.8,55 250.6,55 249.8,60.4 257.5,60.4 
		256.9,64.7 249.2,64.7 248.3,70.6 256.2,70.6 255.5,75 242.6,75 	"/>
</g>
</svg>
