<?xml version="1.0" encoding="utf-8"?>
<!-- Generator: Adobe Illustrator 26.0.1, SVG Export Plug-In . SVG Version: 6.00 Build 0)  -->
<svg version="1.1" id="Layer_1" xmlns="http://www.w3.org/2000/svg" xmlns:xlink="http://www.w3.org/1999/xlink" x="0px" y="0px"
	 viewBox="0 0 16 16" style="enable-background:new 0 0 16 16;" xml:space="preserve">
<style type="text/css">
	.st0{fill-rule:evenodd;clip-rule:evenodd;fill:#191970;}
</style>
<path id="_92678544" class="st0" d="M1.7,11.8c-1.1-0.2-2.2-1.7-1.5-3.5c0,0,0.5-1,1.3-1.2c0.3-0.1,0.5-0.1,0.7-0.1
	c0.5-0.1,0.9-0.4,1-0.8C4,3.6,7.8,3.5,9,4.7c0.2,0.2,0.3,0.3,0.4,0.4c0.2,0.3,0.6,0.4,1,0.4C11,5.5,12.1,5.5,12.6,6
	c0.5,0.6,0.8,1.3,0.9,1.7c0,0.2,0.2,0.3,0.4,0.3c0.8,0,2.4,0.9,2.1,2.5c-0.2,1.1-1.3,1.4-1.3,1.4L1.7,11.8L1.7,11.8z"/>
</svg>
